<svg width="312" height="312" viewBox="0 0 312 312" fill="none" xmlns="http://www.w3.org/2000/svg">
<path d="M0 36C0 16.1178 16.1178 0 36 0H276C295.882 0 312 16.1178 312 36V276C312 295.882 295.882 312 276 312H36C16.1178 312 0 295.882 0 276V36Z" fill="#1a1a2e"/>
<path d="M57 260V80h70c13 0 24 3 33 8 9 5 16 12 21 22 5 9 7 20 7 33 0 12-2 23-7 33-5 9-12 17-21 22-9 5-20 7-33 7h-28v-34h20c6 0 11-1 15-4 4-2 7-6 9-10 2-4 3-9 3-15 0-6-1-10-3-15-2-4-5-7-9-10-4-2-9-4-15-4h-20V260H57Z" fill="#8CCFFF"/>
<path d="M255 143V260h-41v-90h41Z" fill="#8CCFFF"/>
</svg>
